# xmcd
#
# Track frame offsets: 
#        150
#        23206
#        37338
#        51153
#        69651
#        89718
#        109668
#        128586
#        144730
#        166293
#        181378
#        196558
#        216419
#        224986
#        246855
#
# Disc length: 3489 seconds
#
# Revision: 1
# Processed by: cddbd v1.5.1PL0 Copyright (c) Steve Scherf et al.
# Submitted via: ExactAudioCopy v0.95a3
#
DISCID=ed0d9f0f
DTITLE=No Worries, Mate ! - ...No Worries, Mate !
DYEAR=1999
DGENRE=Ethnic
TTITLE0=Uluru
TTITLE1=Diamantina Drover
TTITLE2=Alice Springs
TTITLE3=Deep Cave
TTITLE4=Mt. Arapiles
TTITLE5=Way out West
TTITLE6=Carpentaria Highway
TTITLE7=Down Under
TTITLE8=Carrickfergus
TTITLE9=Tracks in the Desert
TTITLE10=Waltzing Matilda
TTITLE11=North of the Netting
TTITLE12=Running Didge
TTITLE13=This Time every Year
TTITLE14=Toolondo
EXTD=
EXTT0=
EXTT1=
EXTT2=
EXTT3=
EXTT4=
EXTT5=
EXTT6=
EXTT7=
EXTT8=
EXTT9=
EXTT10=
EXTT11=
EXTT12=
EXTT13=
EXTT14=
PLAYORDER=
